<svg width="64" height="64" viewBox="0 0 64 64" fill="none" xmlns="http://www.w3.org/2000/svg">
<g clip-path="url(#clip0_50_5)">
<g clip-path="url(#clip1_50_5)">
<path d="M17.5859 46.414C17.9769 46.805 18.4879 47 18.9999 47C19.5119 47 20.0229 46.805 20.4139 46.414L31.9999 34.828L43.5859 46.414C43.9769 46.805 44.4879 47 44.9999 47C45.5119 47 46.0229 46.805 46.4139 46.414C46.7889 46.039 46.9995 45.5304 46.9995 45C46.9995 44.4697 46.7889 43.9611 46.4139 43.586L34.8279 32L46.4139 20.414C46.6049 20.2295 46.7573 20.0089 46.8621 19.7648C46.9669 19.5208 47.0221 19.2584 47.0244 18.9928C47.0267 18.7273 46.9761 18.4639 46.8756 18.2181C46.775 17.9723 46.6265 17.749 46.4387 17.5613C46.2509 17.3735 46.0276 17.225 45.7818 17.1244C45.536 17.0238 45.2727 16.9732 45.0071 16.9755C44.7416 16.9778 44.4791 17.033 44.2351 17.1378C43.9911 17.2427 43.7704 17.395 43.5859 17.586L31.9999 29.172L20.4139 17.586C20.2294 17.395 20.0087 17.2427 19.7647 17.1378C19.5207 17.033 19.2583 16.9778 18.9927 16.9755C18.7272 16.9732 18.4638 17.0238 18.218 17.1244C17.9722 17.225 17.7489 17.3735 17.5611 17.5613C17.3733 17.749 17.2248 17.9723 17.1243 18.2181C17.0237 18.4639 16.9731 18.7273 16.9754 18.9928C16.9777 19.2584 17.0329 19.5208 17.1377 19.7648C17.2425 20.0089 17.3949 20.2295 17.5859 20.414L29.1719 32L17.5859 43.586C17.211 43.9611 17.0003 44.4697 17.0003 45C17.0003 45.5304 17.211 46.039 17.5859 46.414Z" fill="white"/>
<path d="M32 64C40.547 64 48.583 60.671 54.626 54.627C60.671 48.583 64 40.547 64 32C64 23.453 60.671 15.417 54.626 9.374C48.583 3.329 40.547 0 32 0C23.453 0 15.417 3.329 9.374 9.373C3.329 15.417 0 23.453 0 32C0 40.547 3.329 48.583 9.374 54.626C15.417 60.671 23.453 64 32 64ZM12.202 12.202C17.49 6.913 24.521 4 32 4C39.479 4 46.51 6.913 51.798 12.202C57.087 17.49 60 24.521 60 32C60 39.479 57.087 46.51 51.798 51.798C46.51 57.087 39.479 60 32 60C24.521 60 17.49 57.087 12.202 51.798C6.913 46.51 4 39.479 4 32C4 24.521 6.913 17.49 12.202 12.202Z" fill="white"/>
</g>
</g>
<defs>
<clipPath id="clip0_50_5">
<rect width="64" height="64" fill="white"/>
</clipPath>
<clipPath id="clip1_50_5">
<rect width="64" height="64" fill="white"/>
</clipPath>
</defs>
</svg>
