<svg width="216" height="245" viewBox="0 0 216 245" fill="none" xmlns="http://www.w3.org/2000/svg">
<line x1="23.0001" y1="233.963" x2="24.0001" y2="45.9628" stroke="white" stroke-width="14"/>
<path d="M63.5 129L186.5 33.5M184.016 228.005L184.016 39" stroke="white" stroke-width="14"/>
<line x1="103.264" y1="98.7825" x2="20.9187" y2="39.6871" stroke="white" stroke-width="14"/>
<line x1="19.8087" y1="239.393" x2="122.809" y2="162.393" stroke="white" stroke-width="14"/>
<path d="M94 140L126 155" stroke="white" stroke-width="13"/>
<path d="M122 149L122 168" stroke="white" stroke-width="14"/>
<path d="M191 228L177 240V228H191Z" fill="white"/>
<path d="M67 135L52 128.5L59.5 123L68.5 134L67 135Z" fill="white"/>
<path d="M94 147L76 139.5L89 131L98 134.5L94 147Z" fill="white"/>
<path d="M135.074 46.2885C137.082 43.8231 137.947 40.5907 137.362 37.4124C136.749 34.0866 134.675 31.2987 131.753 29.7192C132.709 26.4398 132.082 22.8414 129.951 20.0448C127.843 17.2791 124.487 15.6279 120.972 15.6279C120.473 15.6279 119.977 15.6606 119.486 15.7256C117.76 11.7228 113.727 9 109.164 9C105.546 9 102.323 10.6951 100.271 13.3209C98.2197 10.6951 94.9965 9 91.3781 9C86.8136 9 82.7787 11.7252 81.0544 15.731C80.562 15.6662 80.0644 15.6336 79.5634 15.6336C75.9957 15.6336 72.7242 17.2426 70.5879 20.0485C68.4588 22.845 67.8318 26.4431 68.7875 29.7221C65.8655 31.3015 63.7918 34.09 63.1791 37.4178C62.5949 40.5953 63.4609 43.8264 65.469 46.2912C63.4604 48.7566 62.5949 51.9888 63.1806 55.1674C63.7934 58.4932 65.8674 61.281 68.789 62.8604C67.8331 66.1399 68.4608 69.7383 70.5914 72.5349C72.6993 75.3006 76.056 76.9519 79.5708 76.9519C80.0692 76.9519 80.5652 76.9191 81.0564 76.8541C82.7821 80.8571 86.8153 83.5797 91.3781 83.5797C94.9963 83.5797 98.2196 81.8846 100.271 79.2588C102.323 81.8846 105.546 83.5797 109.164 83.5797C113.729 83.5797 117.764 80.8545 119.488 76.8487C119.981 76.9135 120.478 76.9461 120.979 76.9461C124.547 76.9461 127.819 75.337 129.955 72.5313C132.084 69.7347 132.711 66.1366 131.755 62.8578C134.677 61.2783 136.751 58.4897 137.364 55.1619C137.948 51.9844 137.082 48.7533 135.074 46.2885ZM97.9514 72.545C97.9514 76.1119 95.0025 79.0136 91.3781 79.0136C88.238 79.0136 85.5259 76.8143 84.9292 73.784L84.8977 73.6239C84.8374 73.2696 84.8054 72.9075 84.8054 72.545C84.8054 71.4916 85.0609 70.4773 85.5405 69.5686C87.2847 70.6231 89.2945 71.1885 91.3932 71.1884L91.3929 66.6223C89.6371 66.6224 87.9864 65.9495 86.7448 64.7276C85.5035 63.5061 84.8198 61.8819 84.8196 60.1541L80.1798 60.1547C80.18 62.3928 80.8543 64.5284 82.1053 66.3395C80.8803 68.1044 80.2069 70.1794 80.1702 72.3579C79.9713 72.376 79.7715 72.3858 79.5709 72.3858C77.4779 72.3858 75.558 71.4416 74.3035 69.7956C72.7597 67.7693 72.5622 65.0237 73.8004 62.801L74.3513 61.8122L73.4133 59.7086L72.372 59.4084C69.9654 58.7148 68.193 56.7777 67.7462 54.3528C67.355 52.2298 68.0711 50.0674 69.6222 48.5729H80.4067C80.8483 50.6491 81.8896 52.5573 83.449 54.0923C85.4832 56.0869 88.2867 57.3246 91.3784 57.3246H97.9514V72.545ZM97.9514 52.7585H91.3784C87.8783 52.7585 85.0091 50.052 84.8163 46.6539C84.8157 46.6427 84.8145 46.6316 84.8139 46.6201C84.8083 46.5107 84.8054 46.4007 84.8054 46.29C84.8054 44.562 85.4893 42.9377 86.7307 41.7161L83.4501 38.4871C81.8902 40.0221 80.8487 41.9304 80.4069 44.0068H69.6194C68.0702 42.5128 67.3547 40.3521 67.7445 38.2313C68.1913 35.8052 69.9638 33.8673 72.3703 33.174L73.4119 32.874L74.3496 30.7704L73.7987 29.7817C72.5607 27.5591 72.7577 24.8132 74.3008 22.7864C75.5524 21.1425 77.4705 20.1997 79.563 20.1997C79.7666 20.1997 79.969 20.2096 80.1701 20.2279C80.2078 22.4043 80.881 24.477 82.105 26.2404C80.854 28.0515 80.1797 30.1869 80.1795 32.4252L84.8193 32.4258C84.8194 30.698 85.5032 29.074 86.7445 27.8522C87.9861 26.6305 89.6366 25.9576 91.3921 25.9576C91.3926 25.9576 91.3929 21.3915 91.3929 21.3915C89.2937 21.3915 87.2844 21.9569 85.5402 23.0112C85.0607 22.1024 84.8054 21.0882 84.8054 20.0348C84.8054 19.6736 84.8372 19.3127 84.8971 18.9597L84.9294 18.7958C85.5259 15.7654 88.2382 13.5661 91.3781 13.5661C95.0025 13.5661 97.9514 16.4679 97.9514 20.0348V52.7585ZM102.591 20.0351C102.591 16.4679 105.54 13.5661 109.164 13.5661C112.305 13.5661 115.017 15.7654 115.613 18.7958L115.645 18.954C115.705 19.3089 115.737 19.6716 115.737 20.0348C115.737 21.0882 115.482 22.1024 115.002 23.0111C113.258 21.9568 111.248 21.3912 109.149 21.3913L109.15 25.9574C110.905 25.9573 112.556 26.6302 113.798 27.8522C115.039 29.0735 115.723 30.6978 115.723 32.4256L120.363 32.425C120.362 30.1867 119.688 28.0512 118.437 26.2402C119.662 24.4753 120.336 22.4003 120.372 20.222C120.571 20.2039 120.771 20.1941 120.972 20.1941C123.065 20.1941 124.985 21.1382 126.239 22.7843C127.783 24.8106 127.98 27.5562 126.742 29.7788L126.19 30.7701L126.656 31.8031L127.13 32.8714L128.171 33.1716C130.578 33.8652 132.35 35.8023 132.797 38.2273C133.188 40.3503 132.472 42.5128 130.921 44.0071H120.136C119.694 41.9309 118.653 40.0227 117.094 38.4876C115.059 36.4931 112.256 35.2554 109.164 35.2554H102.591V20.0351ZM132.798 54.3483C132.351 56.7745 130.579 58.7124 128.172 59.4057L127.133 59.7051L126.194 61.8117L126.744 62.798C127.982 65.0206 127.785 67.7665 126.242 69.7933C124.99 71.4374 123.072 72.3801 120.979 72.38C120.776 72.38 120.573 72.3701 120.372 72.3518C120.335 70.1756 119.661 68.1028 118.437 66.3395C119.688 64.5284 120.363 62.393 120.363 60.1547L115.723 60.1541C115.723 61.8819 115.039 63.5061 113.798 64.7276C112.557 65.9494 110.906 66.6223 109.15 66.6223C109.15 66.6223 109.15 71.1884 109.15 71.1884C111.249 71.1884 113.258 70.6229 115.002 69.5686C115.482 70.4773 115.737 71.4916 115.737 72.545C115.737 72.908 115.705 73.2707 115.645 73.6258L115.614 73.7842C115.017 76.8143 112.304 79.0136 109.164 79.0136C105.54 79.0136 102.591 76.1119 102.591 72.545V39.8212H109.164C112.664 39.8212 115.534 42.5277 115.726 45.9258C115.727 45.9371 115.728 45.9482 115.729 45.9596C115.734 46.069 115.737 46.1791 115.737 46.2897C115.737 48.0177 115.053 49.642 113.812 50.8636L117.092 54.0926C118.652 52.5576 119.694 50.6493 120.136 48.5729H130.923C132.472 50.0669 133.188 52.2276 132.798 54.3483Z" fill="white"/>
</svg>
