<svg width="216" height="245" viewBox="0 0 216 245" fill="none" xmlns="http://www.w3.org/2000/svg">
<line x1="37.0001" y1="233.963" x2="38.0001" y2="45.9628" stroke="#007ACC" stroke-width="14"/>
<path d="M77.5 129L200.5 33.5M198.016 228.005L198.016 39" stroke="url(#paint0_linear_8_42)" stroke-width="14"/>
<line x1="117.264" y1="98.7825" x2="34.9187" y2="39.6871" stroke="url(#paint1_linear_8_42)" stroke-width="14"/>
<line x1="33.8087" y1="239.393" x2="136.809" y2="162.393" stroke="url(#paint2_linear_8_42)" stroke-width="14"/>
<path d="M108 140L140 155" stroke="url(#paint3_linear_8_42)" stroke-width="13"/>
<path d="M136 149L136 168" stroke="#107AA6" stroke-width="14"/>
<path d="M205 228L191 240V228H205Z" fill="#1D7A85"/>
<path d="M81 135L66 128.5L73.5 123L82.5 134L81 135Z" fill="#037AC4"/>
<path d="M108 147L90 139.5L103 131L112 134.5L108 147Z" fill="url(#paint4_linear_8_42)"/>
<path d="M149.074 46.2885C151.082 43.8231 151.947 40.5907 151.362 37.4124C150.749 34.0866 148.675 31.2987 145.753 29.7192C146.709 26.4398 146.082 22.8414 143.951 20.0448C141.843 17.2791 138.487 15.6279 134.972 15.6279C134.473 15.6279 133.977 15.6606 133.486 15.7256C131.76 11.7228 127.727 9 123.165 9C119.546 9 116.323 10.6951 114.271 13.3209C112.22 10.6951 108.996 9 105.378 9C100.814 9 96.7787 11.7252 95.0544 15.731C94.562 15.6662 94.0645 15.6336 93.5634 15.6336C89.9957 15.6336 86.7242 17.2426 84.5879 20.0485C82.4588 22.845 81.8319 26.4431 82.7875 29.7221C79.8655 31.3015 77.7918 34.09 77.1791 37.4178C76.5949 40.5953 77.4609 43.8264 79.469 46.2912C77.4604 48.7566 76.5949 51.9888 77.1806 55.1674C77.7934 58.4932 79.8674 61.281 82.789 62.8604C81.8331 66.1399 82.4609 69.7383 84.5914 72.5349C86.6993 75.3006 90.056 76.9519 93.5708 76.9519C94.0693 76.9519 94.5652 76.9191 95.0564 76.8541C96.7821 80.8571 100.815 83.5797 105.378 83.5797C108.996 83.5797 112.22 81.8846 114.271 79.2588C116.323 81.8846 119.546 83.5797 123.165 83.5797C127.729 83.5797 131.764 80.8545 133.488 76.8487C133.981 76.9135 134.478 76.9461 134.979 76.9461C138.547 76.9461 141.819 75.337 143.955 72.5313C146.084 69.7347 146.711 66.1366 145.755 62.8578C148.677 61.2783 150.751 58.4897 151.364 55.1619C151.948 51.9844 151.082 48.7533 149.074 46.2885ZM111.951 72.545C111.951 76.1119 109.003 79.0136 105.378 79.0136C102.238 79.0136 99.5259 76.8143 98.9293 73.784L98.8977 73.6239C98.8374 73.2696 98.8054 72.9075 98.8054 72.545C98.8054 71.4916 99.0609 70.4773 99.5405 69.5686C101.285 70.6231 103.295 71.1885 105.393 71.1884L105.393 66.6223C103.637 66.6224 101.986 65.9495 100.745 64.7276C99.5035 63.5061 98.8198 61.8819 98.8196 60.1541L94.1798 60.1547C94.18 62.3928 94.8543 64.5284 96.1053 66.3395C94.8803 68.1044 94.2069 70.1794 94.1702 72.3579C93.9714 72.376 93.7715 72.3858 93.5709 72.3858C91.4779 72.3858 89.558 71.4416 88.3036 69.7956C86.7598 67.7693 86.5623 65.0237 87.8005 62.801L88.3514 61.8122L87.4133 59.7086L86.372 59.4084C83.9654 58.7148 82.193 56.7777 81.7462 54.3528C81.355 52.2298 82.0711 50.0674 83.6222 48.5729H94.4067C94.8483 50.6491 95.8896 52.5573 97.449 54.0923C99.4833 56.0869 102.287 57.3246 105.378 57.3246H111.951V72.545ZM111.951 52.7585H105.378C101.878 52.7585 99.0091 50.052 98.8164 46.6539C98.8157 46.6427 98.8145 46.6316 98.8139 46.6201C98.8083 46.5107 98.8054 46.4007 98.8054 46.29C98.8054 44.562 99.4893 42.9377 100.731 41.7161L97.4501 38.4871C95.8902 40.0221 94.8487 41.9304 94.4069 44.0068H83.6194C82.0702 42.5128 81.3547 40.3521 81.7445 38.2313C82.1913 35.8052 83.9638 33.8673 86.3703 33.174L87.412 32.874L88.3497 30.7704L87.7988 29.7817C86.5607 27.5591 86.7577 24.8132 88.3008 22.7864C89.5524 21.1425 91.4705 20.1997 93.5631 20.1997C93.7666 20.1997 93.969 20.2096 94.1701 20.2279C94.2078 22.4043 94.8811 24.477 96.105 26.2404C94.854 28.0515 94.1797 30.1869 94.1795 32.4252L98.8193 32.4258C98.8195 30.698 99.5032 29.074 100.744 27.8522C101.986 26.6305 103.637 25.9576 105.392 25.9576C105.393 25.9576 105.393 21.3915 105.393 21.3915C103.294 21.3915 101.284 21.9569 99.5402 23.0112C99.0607 22.1024 98.8054 21.0882 98.8054 20.0348C98.8054 19.6736 98.8372 19.3127 98.8971 18.9597L98.9294 18.7958C99.5259 15.7654 102.238 13.5661 105.378 13.5661C109.003 13.5661 111.951 16.4679 111.951 20.0348V52.7585ZM116.591 20.0351C116.591 16.4679 119.54 13.5661 123.165 13.5661C126.305 13.5661 129.017 15.7654 129.613 18.7958L129.645 18.954C129.705 19.3089 129.737 19.6716 129.737 20.0348C129.737 21.0882 129.482 22.1024 129.002 23.0111C127.258 21.9568 125.248 21.3912 123.149 21.3913L123.15 25.9574C124.905 25.9573 126.556 26.6302 127.798 27.8522C129.039 29.0735 129.723 30.6978 129.723 32.4256L134.363 32.425C134.362 30.1867 133.688 28.0512 132.437 26.2402C133.662 24.4753 134.336 22.4003 134.372 20.222C134.571 20.2039 134.771 20.1941 134.972 20.1941C137.065 20.1941 138.985 21.1382 140.239 22.7843C141.783 24.8106 141.98 27.5562 140.742 29.7788L140.19 30.7701L140.656 31.8031L141.13 32.8714L142.171 33.1716C144.578 33.8652 146.35 35.8023 146.797 38.2273C147.188 40.3503 146.472 42.5128 144.921 44.0071H134.136C133.694 41.9309 132.653 40.0227 131.094 38.4876C129.059 36.4931 126.256 35.2554 123.164 35.2554H116.591V20.0351ZM146.798 54.3483C146.351 56.7745 144.579 58.7124 142.172 59.4057L141.133 59.7051L140.194 61.8117L140.744 62.798C141.982 65.0206 141.785 67.7665 140.242 69.7933C138.99 71.4374 137.072 72.3801 134.979 72.38C134.776 72.38 134.573 72.3701 134.372 72.3518C134.335 70.1756 133.661 68.1028 132.437 66.3395C133.688 64.5284 134.363 62.393 134.363 60.1547L129.723 60.1541C129.723 61.8819 129.039 63.5061 127.798 64.7276C126.557 65.9494 124.906 66.6223 123.15 66.6223C123.15 66.6223 123.15 71.1884 123.15 71.1884C125.249 71.1884 127.258 70.6229 129.002 69.5686C129.482 70.4773 129.738 71.4916 129.738 72.545C129.738 72.908 129.705 73.2707 129.645 73.6258L129.614 73.7842C129.017 76.8143 126.304 79.0136 123.165 79.0136C119.54 79.0136 116.591 76.1119 116.591 72.545V39.8212H123.164C126.664 39.8212 129.534 42.5277 129.726 45.9258C129.727 45.9371 129.728 45.9482 129.729 45.9596C129.734 46.069 129.737 46.1791 129.737 46.2897C129.737 48.0177 129.053 49.642 127.812 50.8636L131.092 54.0926C132.652 52.5576 133.694 50.6493 134.136 48.5729H144.923C146.472 50.0669 147.188 52.2276 146.798 54.3483Z" fill="url(#paint5_linear_8_42)"/>
<defs>
<linearGradient id="paint0_linear_8_42" x1="62.6546" y1="131.733" x2="200.957" y2="130.993" gradientUnits="userSpaceOnUse">
<stop/>
<stop offset="0.0001" stop-color="#007ACC"/>
<stop offset="1" stop-color="#1D7A85"/>
</linearGradient>
<linearGradient id="paint1_linear_8_42" x1="35.5" y1="44.5" x2="113" y2="96.9999" gradientUnits="userSpaceOnUse">
<stop stop-color="#007ACC"/>
<stop offset="0.0001" stop-color="#007ACC"/>
<stop offset="0.459" stop-color="#0C7AAE"/>
<stop offset="0.6989" stop-color="#147A9C"/>
<stop offset="0.699" stop-color="#147A9C"/>
<stop offset="1" stop-color="#0C7AB0"/>
</linearGradient>
<linearGradient id="paint2_linear_8_42" x1="42.0001" y1="232" x2="134.5" y2="166" gradientUnits="userSpaceOnUse">
<stop stop-color="#007ACC"/>
<stop stop-color="#007ACC"/>
<stop offset="0.0001" stop-color="#007ACC"/>
<stop offset="1" stop-color="#117AA2"/>
</linearGradient>
<linearGradient id="paint3_linear_8_42" x1="137" y1="153.5" x2="109" y2="140.5" gradientUnits="userSpaceOnUse">
<stop stop-color="#0F7AA7"/>
<stop offset="0.0001" stop-color="#0A7AB4"/>
<stop offset="0.548754" stop-color="#0C7AB0"/>
<stop offset="1" stop-color="#097AB6"/>
</linearGradient>
<linearGradient id="paint4_linear_8_42" x1="93.5" y1="135.5" x2="109.5" y2="143" gradientUnits="userSpaceOnUse">
<stop stop-color="#087AB9"/>
<stop offset="1" stop-color="#067ABE"/>
</linearGradient>
<linearGradient id="paint5_linear_8_42" x1="75.6067" y1="29.6667" x2="158.162" y2="29.9367" gradientUnits="userSpaceOnUse">
<stop stop-color="#097AB6"/>
<stop stop-color="#007ACC" stop-opacity="0.58"/>
<stop offset="0.265335" stop-color="#137A9D" stop-opacity="0.77"/>
<stop offset="0.474102" stop-color="#107AA6" stop-opacity="0.83"/>
<stop offset="0.701883" stop-color="#147A9D" stop-opacity="0.69819"/>
<stop offset="1" stop-color="#187A92" stop-opacity="0.57"/>
</linearGradient>
</defs>
</svg>
